<?xml version="1.0" encoding="UTF-8"?>
<svg id="formula-lockup" xmlns="http://www.w3.org/2000/svg" viewBox="0 0 1984 832"><defs><style>
  .cls-1 { fill: transparent; }
  #formula-lockup path:not(.cls-1),
  #formula-lockup polygon:not(.cls-1),
  #formula-lockup rect:not(.cls-1) { fill: #dcff00; }
</style></defs><path class="cls-1" d="M0,832V0h1984v832H0ZM1829,151H140v515.71h1689V151Z"/><path d="M1829,151v515.71H140V151h1689ZM1793.82,188.29H177.28v440.71h1616.54V188.29Z"/><path class="cls-1" d="M1793.82,188.29v440.71H177.28V188.29h1616.54ZM446,287.32c0-1.59-3.58-3.03-5.07-3.03l-150.85.05-.02,33.47,155.88-.04.07-30.45ZM811.14,487.9l36.31-.07c.25-1.62-.51-2.95-1.7-4.86l-50.58-81.3c32.59-7.97,51.33-37.51,46.13-68.91-4.05-17.89-14.7-32.32-31.01-40.98-3.95-2.09-9.61-4.83-14.11-5.26-5.23-.49-10.38-1.86-15.15-1.88l-98.86-.37-.02,33.49,104.9.33c13.01.04,22.56,12.73,23.12,24.47.54,11.06-7.11,26.51-20.62,26.65l-107.57,1.12.04,117.54,31.95-.17.04-85.7,43.54.07,53.58,85.83ZM1056.17,487.76h31.93s-.03-203.38-.03-203.38l-51.48-.05-41.19,94.07-10.57,24.15c-3.86-5.71-5.85-11.16-8.45-17.11l-44.08-100.96-52.21-.1-.1,33.63,31.54.05,8.6,18.91,7.86,18.01,18.5,42.67,9.52,21.37,28.4,64.38,71.32-161.9.47,166.27ZM1271.99,284.59l-31.88-.22-.41,144.11c-.02,5.49-4.69,11.18-6.52,15.52-1.62,3.84-4.68,6.15-7.58,8.68-7.61,6.62-16.34,9.98-26.68,9.67-8.16-.25-15.91-1.37-23.27-6.68-8.01-5.79-17.33-16.32-17.36-27.64l-.41-139.02c0-2.85-2.14-4.75-4.76-4.74l-27.18.07.28,147.62c.03,14.15,13.4,36.39,24.64,45.28,9.79,7.74,21.41,14.58,34.04,16.44,27.77,4.09,49.49-2.94,68.39-23.36,9.79-10.57,15.28-22.19,18.57-36.9l.13-148.84ZM1445.86,455.64c-3.62-.91-5.28.12-7.91.12l-98.22.09v-166.77c0-2.86-2.04-4.81-4.59-4.81l-25.14.05c-3.09,0-3.76,2.85-3.76,5.78l.03,193.77c0,2.44,2.58,3.97,4.77,3.97l142.91-.04-.15-30.92c-.48-2.18-6.2-2.16-7.94-1.25ZM1482.07,487.75l35.26.09,12.46-28.89,8.06-19.18,96.09.02,20.34,47.99,33.62.06c.43-3.66-.47-5.7-1.94-9.15l-82.62-194.2-31.12-.27c-.88,0-3.06,1.28-3.32,1.96-.2.55.15,1.09.69,2.31l49.78,117.17-65.32.32c-.18-2.19.23-4.8.98-6.72l6.87-15.43c1.42-3.18,2.32-5.98,2.03-9.61h-33.26s-6.28,14.06-6.28,14.06l-24.24,56.77-18.09,42.69ZM567.06,491.78l83.04-48.95v-105.59s-19.09-11.28-19.09-11.28l-64.03-37.72c-3.64-2.15-5.65-3.13-9.65-.77l-72.81,43.03-12.29,6.77-.02,104.33c4.04,3.19,7.85,5.41,12.24,8.01l72.25,42.72c3.59,2.12,7.31,2.76,10.36-.54ZM322.03,402h123.94s-.09-31.93-.09-31.93h-155.87s-.01,117.75-.01,117.75l31.97.02.07-85.84ZM912,371.85h-32v115.99h32v-115.99ZM1206.96,586.88l.04-54-3.37.03-.45,43.99-45.63-48.96-.17,54.05,3.69-.25.38-44.23,45.51,49.37ZM529.48,581.75c8.06-.05,11.86-7.97,11.38-14.16s-4.9-11.85-11.96-11.93l-23.91-.26c-5.99-.06-10.04-4.3-9.83-9.73s3.82-9.68,10.1-9.68l34.44-.02c.96,0,1.11-2.99.71-3.64l-35.44-.02c-7.49,0-13.11,5.44-13.64,12.31-.49,6.5,4.11,13.99,11.61,14.13l23.76.43c5.71.1,9.8,3.29,10.63,8.56.62,3.95-2.95,10.58-8.48,10.63l-36.75.34c-.7,0-.83,3.29-.06,3.29l37.44-.25ZM619.94,557.26c0-13.77-11.17-24.94-24.94-24.94s-24.94,11.17-24.94,24.94,11.17,24.94,24.94,24.94,24.94-11.17,24.94-24.94ZM694.57,552.74c.42.55,2.87-.77,2.64-1.84-2.36-11.16-14.7-20.32-26.78-18.53-12.67,1.88-21.95,11.72-22.18,24.24-.25,13.19,9.12,23.33,21.29,25.29,12.63,2.04,24.96-6.52,27.69-18.36.22-.94-2.72-2.25-3.19-1.73-3.07,10.48-12.59,17.99-23.44,16.56-9.9-1.31-18.12-9.7-18.61-20.11-.49-10.23,6.86-19.94,17.41-21.84,18.34-3.3,23.58,14.21,25.18,16.32ZM763.67,574.33c-11.04,8.32-25.73,3.77-31.46-8s.28-24.9,12.53-29.27,24.3,3.64,27.47,15.38c.23.85,3.5-.53,3.19-1.7-3.14-11.83-15.26-20.11-27.71-18.2-12.18,1.88-21.04,12.08-21.26,24.08-.24,12.78,8.63,23.07,20.26,25.08,19.66,3.4,30.58-14.98,28.02-19.71-2.36-4.36-2.26,5.72-11.03,12.33ZM804.79,532.27v3.73s49.57.02,49.57.02v-3.73s-49.57-.02-49.57-.02ZM907.01,559.13l25.53,27.96-.17-5.68-19.78-22c4.3-.44,7.69-.45,10.98-1.24,6.87-1.65,9.93-9.03,8.63-15.26-1.2-5.74-6.5-10.59-13.16-10.59l-35.69-.02c-.55.5-.15,3.68.94,3.68l33.4-.03c6.67,0,10.81,3.79,10.96,9.57s-4.4,9.97-10.6,9.96h-34.95s-.11,25-.11,25c0,.78,2.16,2.12,2.48,1.68.22-.3.8-1.19.81-1.77l.24-21.42,20.5.14ZM1037.15,574.7c-11.3,7.82-25.33,3.18-31-8.34-5.45-11.07,0-24.26,11.8-29.05,11.56-4.69,25.01,3.84,27.76,14.34.29,1.11,3.61.85,3.41-.51-1.42-9.73-14.12-20.02-25.79-18.81-12.64,1.32-21.83,10.83-22.92,22.52-1.22,13.18,7.82,24.31,19.39,26.68,20.41,4.19,31.3-15.37,28.85-19.31-2.66-4.27-3.07,6.64-11.51,12.48ZM1079.17,532.28v3.73s49.64.02,49.64.02v-3.73s-49.64-.02-49.64-.02ZM1262.31,580.69l.02-44.58,21.45-.17c.76,0,2.14-2.05,1.71-2.46s-1.73-1.14-2.35-1.14l-45.29-.07c-1.08,0-2.69,1.34-2.46,2.18.18.64,1.77,1.48,2.55,1.49l20.53.25.17,45.12c0,1.04,3.67.44,3.67-.63ZM1363.42,532.24l-49.59.06v3.76s49.59-.06,49.59-.06v-3.76ZM1395.63,558.95l20.21.12,25.66,27.83c-.02-2.36.15-5.3-.65-6.18l-19.23-21.14,9.37-1.03c7.36-.81,11.45-8.17,10.41-14.81-.98-6.23-6.14-11.43-13.47-11.42l-35.15.04c-.78.44-.65,3.62.4,3.62l34.47.03c5.95,0,10.11,4.25,10.15,9.5.04,5.13-3.9,9.89-9.78,9.91l-36.01.12v25.48c-.01,1.17,3.35.83,3.36-.41l.25-21.67ZM854.35,555.46h-49.58s0,3.54,0,3.54h49.58s0-3.54,0-3.54ZM1079.2,555.46v3.52s49.61,0,49.61,0v-3.52s-49.61,0-49.61,0ZM1313.84,555.46v3.51h49.59v-3.51h-49.59ZM854.38,578.44l-49.7.03v3.62s49.7-.03,49.7-.03v-3.62ZM1128.84,578.43l-49.7.02v3.64s49.7-.02,49.7-.02v-3.64ZM1363.46,578.39l-49.61.13v3.63s49.62-.13,49.62-.13v-3.63Z"/><path d="M567.06,491.78c-3.05,3.3-6.77,2.66-10.36.54l-72.25-42.72c-4.39-2.59-8.2-4.82-12.24-8.01l.02-104.33,12.29-6.77,72.81-43.03c4-2.36,6-1.38,9.65.77l64.03,37.72,19.08,11.28v105.59s-83.04,48.95-83.04,48.95Z"/><path d="M1056.17,487.76l-.47-166.27-71.32,161.9-28.4-64.38-9.52-21.37-18.5-42.67-7.86-18.01-8.6-18.91-31.54-.05.1-33.63,52.21.1,44.08,100.96c2.6,5.95,4.6,11.41,8.45,17.11l10.57-24.15,41.19-94.07,51.48.05.03,203.38h-31.93Z"/><path d="M811.14,487.9l-53.58-85.83-43.54-.07-.04,85.7-31.95.17-.04-117.54,107.57-1.12c13.51-.14,21.16-15.59,20.62-26.65-.57-11.75-10.11-24.43-23.12-24.47l-104.9-.33.02-33.49,98.86.37c4.77.02,9.93,1.39,15.15,1.88,4.5.42,10.16,3.16,14.11,5.26,16.31,8.65,26.96,23.09,31.01,40.98,5.2,31.4-13.54,60.94-46.13,68.91l50.58,81.3c1.19,1.91,1.95,3.24,1.7,4.86l-36.31.07Z"/><path d="M1271.99,284.59l-.13,148.84c-3.29,14.71-8.78,26.33-18.57,36.9-18.91,20.42-40.62,27.46-68.39,23.36-12.63-1.86-24.25-8.7-34.04-16.44-11.24-8.89-24.61-31.13-24.64-45.28l-.28-147.62,27.18-.07c2.61,0,4.75,1.89,4.76,4.74l.41,139.02c.03,11.32,9.35,21.86,17.36,27.64,7.35,5.32,15.11,6.44,23.27,6.68,10.34.31,19.08-3.05,26.68-9.67,2.9-2.53,5.97-4.84,7.58-8.68,1.83-4.34,6.51-10.03,6.52-15.52l.41-144.11,31.88.22Z"/><path d="M1482.07,487.75l18.09-42.69,24.24-56.77,6.28-14.08h33.26c.29,3.64-.61,6.45-2.03,9.62l-6.87,15.43c-.75,1.92-1.16,4.53-.98,6.72l65.32-.32-49.78-117.17c-.54-1.22-.9-1.76-.69-2.31.25-.68,2.43-1.97,3.32-1.96l31.12.27,82.62,194.2c1.47,3.45,2.37,5.49,1.94,9.15l-33.62-.06-20.34-47.99-96.09-.02-8.06,19.18-12.46,28.89-35.26-.09Z"/><path d="M1445.86,455.64c1.74-.91,7.46-.92,7.94,1.25l.15,30.92-142.91.04c-2.19,0-4.77-1.53-4.77-3.97l-.03-193.77c0-2.93.67-5.77,3.76-5.78l25.14-.05c2.56,0,4.6,1.95,4.6,4.81v166.77s98.22-.09,98.22-.09c2.63,0,4.29-1.03,7.91-.12Z"/><polygon points="322.03 402 321.96 487.84 290 487.82 290.01 370.08 445.88 370.08 445.97 401.99 322.03 402"/><path d="M446,287.32l-.07,30.45-155.88.04.02-33.47,150.85-.05c1.49,0,5.08,1.45,5.07,3.03Z"/><rect x="880" y="371.85" width="32" height="115.99"/><path d="M529.48,581.75l-37.44.25c-.77,0-.64-3.28.06-3.29l36.75-.34c5.53-.05,9.1-6.68,8.48-10.63-.82-5.26-4.92-8.45-10.63-8.56l-23.76-.43c-7.5-.14-12.1-7.63-11.61-14.13.52-6.87,6.14-12.32,13.64-12.31l35.44.02c.4.65.26,3.64-.71,3.64l-34.44.02c-6.27,0-9.89,4.4-10.1,9.68s3.84,9.66,9.83,9.73l23.91.26c7.06.08,11.5,5.99,11.96,11.93s-3.32,14.11-11.38,14.16Z"/><polygon points="1206.96 586.88 1161.44 537.51 1161.06 581.74 1157.37 581.99 1157.54 527.93 1203.17 576.89 1203.62 532.91 1206.99 532.88 1206.96 586.88"/><path d="M907.01,559.13l-20.5-.14-.24,21.42c0,.58-.59,1.47-.81,1.77-.32.43-2.48-.91-2.48-1.68l.11-25h34.95c6.2,0,10.74-4.07,10.6-9.96s-4.29-9.58-10.96-9.57l-33.4.03c-1.09,0-1.49-3.18-.94-3.68l35.69.02c6.66,0,11.97,4.85,13.16,10.59,1.3,6.23-1.76,13.61-8.63,15.26-3.29.79-6.69.8-10.98,1.24l19.78,22,.17,5.68-25.53-27.96Z"/><path d="M1395.63,558.95l-.25,21.67c-.01,1.24-3.37,1.58-3.37.41v-25.48s36.02-.12,36.02-.12c5.87-.02,9.82-4.78,9.78-9.91-.04-5.26-4.19-9.5-10.15-9.5l-34.47-.03c-1.05,0-1.18-3.18-.4-3.62l35.15-.04c7.33,0,12.5,5.19,13.47,11.42,1.04,6.63-3.05,14-10.41,14.81l-9.37,1.03,19.23,21.14c.8.88.63,3.81.65,6.18l-25.66-27.83-20.21-.12Z"/><path d="M619.94,557.26c0,13.77-11.17,24.94-24.94,24.94s-24.94-11.17-24.94-24.94,11.17-24.94,24.94-24.94,24.94,11.17,24.94,24.94ZM616.24,557.25c0-11.71-9.5-21.21-21.21-21.21s-21.21,9.5-21.21,21.21,9.5,21.21,21.21,21.21,21.21-9.5,21.21-21.21Z"/><path d="M763.67,574.33c8.77-6.61,8.67-16.68,11.03-12.33,2.56,4.73-8.37,23.11-28.02,19.71-11.62-2.01-20.49-12.3-20.26-25.08.22-12,9.08-22.2,21.26-24.08,12.45-1.92,24.57,6.36,27.71,18.2.31,1.17-2.96,2.54-3.19,1.7-3.17-11.74-15.69-19.58-27.47-15.38s-18.06,17.92-12.53,29.27,20.42,16.32,31.46,8Z"/><path d="M694.57,552.74c-1.6-2.1-6.84-19.61-25.18-16.32-10.55,1.9-17.89,11.61-17.41,21.84.5,10.41,8.71,18.8,18.61,20.11,10.85,1.43,20.37-6.08,23.44-16.56.47-.52,3.4.79,3.19,1.73-2.73,11.85-15.06,20.4-27.69,18.36-12.17-1.97-21.53-12.1-21.29-25.29s9.51-22.36,22.18-24.24,24.42,7.37,26.78,18.53c.23,1.07-2.22,2.39-2.64,1.84Z"/><path d="M1037.15,574.7c8.44-5.84,8.85-16.76,11.51-12.48,2.44,3.93-8.45,23.5-28.85,19.31-11.56-2.37-20.61-13.51-19.39-26.68,1.08-11.69,10.27-21.2,22.92-22.52,11.66-1.22,24.37,9.07,25.79,18.81.2,1.36-3.12,1.62-3.41.51-2.74-10.5-16.19-19.03-27.76-14.34-11.81,4.79-17.25,17.99-11.8,29.05,5.67,11.52,19.7,16.16,31,8.34Z"/><path d="M1262.31,580.69c0,1.06-3.66,1.66-3.67.63l-.17-45.12-20.53-.25c-.79,0-2.37-.85-2.55-1.49-.23-.84,1.38-2.18,2.46-2.18l45.29.07c.62,0,1.91.73,2.35,1.14s-.95,2.45-1.71,2.46l-21.45.17-.02,44.58Z"/><rect x="827.71" y="509.36" width="3.73" height="49.57" transform="translate(295.08 1363.5) rotate(-89.98)"/><rect x="1313.85" y="578.45" width="49.61" height="3.63" transform="translate(-1.52 3.52) rotate(-.15)"/><rect x="1313.84" y="555.46" width="49.59" height="3.51"/><rect x="804.76" y="555.46" width="49.58" height="3.53"/><rect x="1313.84" y="532.27" width="49.59" height="3.76" transform="translate(-.63 1.57) rotate(-.07)"/><rect x="804.68" y="578.45" width="49.7" height="3.62"/><rect x="1102.24" y="532.41" width="3.52" height="49.61" transform="translate(546.56 1661.12) rotate(-89.99)"/><rect x="1079.14" y="578.44" width="49.7" height="3.64"/><rect x="1102.13" y="509.33" width="3.73" height="49.64" transform="translate(569.33 1637.9) rotate(-89.97)"/><circle class="cls-1" cx="595.03" cy="557.25" r="21.21"/></svg>